<svg xmlns="http://www.w3.org/2000/svg" viewBox="0 0 1025 1024">
  <path
    d="M980.736 311.744c-25.728-60.8-62.528-115.328-109.376-162.24-46.848-46.848-101.44-83.648-162.24-109.376C646.208 13.504 579.392 0 510.528 0L464.064 0l3.712 1.728C402.24 7.104 339.328 24.896 280.256 54.784 220.48 85.12 166.528 127.552 122.816 178.56L122.816 120.64c0-19.008-15.488-34.496-34.496-34.496-19.008 0-34.496 15.488-34.496 34.496l0 138.752c0 9.152 3.648 17.92 10.368 24.64 6.464 6.656 15.488 10.496 24.768 10.496l138.752 0c19.008 0 34.496-15.488 34.496-34.496 0-19.008-15.488-34.496-34.496-34.496L173.44 225.536c83.968-99.776 205.696-156.608 337.024-156.608 243.392 0 441.472 198.016 441.472 441.408 0 243.392-198.016 441.472-441.472 441.472-243.392 0-441.472-198.016-441.472-441.472 0-19.008-15.488-34.496-34.496-34.496C15.616 475.904 0.128 491.392 0.128 510.4c0 68.864 13.504 135.744 40.128 198.656 25.728 60.8 62.528 115.328 109.376 162.24 46.848 46.848 101.44 83.648 162.24 109.376 62.912 26.624 129.792 40.128 198.656 40.128 68.864 0 135.744-13.504 198.656-40.128 60.8-25.728 115.328-62.528 162.24-109.376 46.848-46.848 83.648-101.44 109.376-162.24 26.624-62.912 40.128-129.792 40.128-198.656C1020.864 441.472 1007.36 374.656 980.736 311.744z"
    fill="#38a8ff"
  />
  <path
    d="M510.528 196.16c-20.096 0-36.416 16.32-36.416 36.416l0 273.92c0 0.768 0 2.048 0.256 3.456 1.344 12.672 9.344 23.872 21.12 29.312l184.96 83.2c4.736 2.176 9.728 3.264 14.912 3.264 0 0 0 0 0 0 14.272 0 27.264-8.384 33.216-21.376 4.032-8.832 4.352-18.688 0.832-27.84-3.456-9.088-10.176-16.256-19.072-20.288L546.944 482.432 546.944 232.576C546.944 212.48 530.56 196.16 510.528 196.16z"
    fill="#38a8ff"
  />
</svg>
